<svg width="32" height="32" viewBox="0 0 32 32" fill="none" xmlns="http://www.w3.org/2000/svg">
<g clip-path="url(#clip0_100_281)">
<path d="M28.2712 21.2583H27.1875V20.3021H28.2712C29.0362 20.3021 29.6737 19.6646 29.6737 18.8996V12.2058C29.6737 10.9946 28.6537 9.97459 27.4425 9.97459H20.43C19.2187 9.97459 18.1987 10.9946 18.1987 12.2058V18.8996C18.1987 19.6646 18.8362 20.3021 19.6012 20.3021H20.685V21.2583H19.6012C18.2625 21.2583 17.2425 20.1746 17.2425 18.8996V12.2058C17.2425 10.4208 18.645 9.01834 20.43 9.01834H27.5062C29.2912 9.01834 30.6937 10.4208 30.6937 12.2058V18.8996C30.6937 20.2383 29.61 21.2583 28.2712 21.2583ZM23.9362 7.99834C22.0237 7.99834 20.43 6.40459 20.43 4.49209C20.43 2.57959 22.0237 0.98584 23.9362 0.98584C25.8487 0.98584 27.4425 2.57959 27.4425 4.49209C27.4425 6.40459 25.9125 7.99834 23.9362 7.99834ZM23.9362 2.00584C22.5337 2.00584 21.3862 3.15334 21.3862 4.55584C21.3862 5.95834 22.5337 7.10584 23.9362 7.10584C25.3387 7.10584 26.4862 5.95834 26.4862 4.55584C26.4862 3.15334 25.3387 2.00584 23.9362 2.00584Z" fill="#F5F5F4"/>
<path d="M25.5937 30.6934C24.9562 30.6934 24.3825 30.3747 24 29.9284C23.6175 30.3747 23.0437 30.6934 22.4062 30.6934C21.2587 30.6934 20.3025 29.7372 20.3025 28.5897V13.0347H21.2587V28.5897C21.2587 29.2272 21.7687 29.7372 22.4062 29.7372C23.0437 29.7372 23.49 29.1634 23.49 28.5897V20.8122H24.4462V28.5897C24.4462 29.2272 24.9562 29.7372 25.5937 29.7372C26.2312 29.7372 26.7412 29.2272 26.7412 28.5897V13.0347H27.6975V28.5897C27.6975 29.7372 26.7412 30.6934 25.5937 30.6934Z" fill="#F5F5F4"/>
<path d="M18.7087 24.0634H1.04999V4.0459H19.0275V5.00215H2.00624V23.1071H18.7087V24.0634Z" fill="#F5F5F4"/>
<path d="M15.585 12.9707H4.62V13.927H15.585V12.9707Z" fill="#F5F5F4"/>
<path d="M15.585 16.2222H4.62V17.1784H15.585V16.2222Z" fill="#F5F5F4"/>
<path d="M15.585 19.5371H4.62V20.4934H15.585V19.5371Z" fill="#F5F5F4"/>
</g>
<defs>
<clipPath id="clip0_100_281">
<rect width="30.6" height="30.6" fill="white" transform="translate(0.539978 0.539551)"/>
</clipPath>
</defs>
</svg>
