<svg width="25" height="26" viewBox="0 0 25 26" fill="none" xmlns="http://www.w3.org/2000/svg">
<path d="M21.5 3.5H3.49997C3.22383 3.5 2.99997 3.72386 2.99997 4V15H22V4C22 3.72386 21.7761 3.5 21.5 3.5Z" stroke="#4883FF"/>
<path d="M24 15.1176C24.2761 15.1176 24.5 14.8938 24.5 14.6176V3.5C24.4983 2.11997 23.38 1.00165 22 1H3C1.61997 1.00165 0.501653 2.11997 0.5 3.5V17.5C0.501653 18.88 1.61997 19.9983 3 20H8.5V22.2325L7.2225 23.0825C7.08302 23.1756 6.99947 23.3323 7 23.5V24C7 24.5523 7.44772 25 8 25H17C17.5523 25 18 24.5523 18 24V23.5C18 23.3329 17.9165 23.1768 17.7775 23.084L16.5 22.2325V20.0882C16.5 19.8121 16.2761 19.5882 16 19.5882C15.7239 19.5882 15.5 19.8121 15.5 20.0882V22.5C15.5 22.6671 15.5835 22.8232 15.7225 22.916L17 23.7675V24H8V23.7675L9.2775 22.9175C9.41698 22.8244 9.50053 22.6677 9.5 22.5V20H22C23.38 19.9983 24.4983 18.88 24.5 17.5V15C24.5 14.7239 24.2761 14.5 24 14.5H1.38235C1.10621 14.5 0.882353 14.7239 0.882353 15C0.882353 15.2761 1.10621 15.5 1.38235 15.5H23.5V17.5C23.5 18.3284 22.8284 19 22 19H3C2.17157 19 1.5 18.3284 1.5 17.5V3.5C1.5 2.67157 2.17157 2 3 2H22C22.8284 2 23.5 2.67157 23.5 3.5V14.6176C23.5 14.8938 23.7239 15.1176 24 15.1176Z" fill="#4883FF" stroke="#4883FF" stroke-width="0.4"/>
<path d="M10.3535 5.35245C10.1582 5.15726 9.84173 5.15726 9.64648 5.35245L6.64648 8.35245C6.45129 8.5477 6.45129 8.8642 6.64648 9.05945L9.64648 12.0594C9.84267 12.2489 10.1545 12.2462 10.3474 12.0534C10.5403 11.8605 10.543 11.5486 10.3535 11.3524L7.70698 8.70595L10.3535 6.05945C10.5487 5.8642 10.5487 5.5477 10.3535 5.35245Z" fill="#4883FF"/>
<path d="M14.6465 12.0594C14.8418 12.2546 15.1583 12.2546 15.3535 12.0594L18.3535 9.05936C18.5487 8.86411 18.5487 8.54761 18.3535 8.35236L15.3535 5.35236C15.228 5.22239 15.0421 5.17026 14.8673 5.21601C14.6925 5.26177 14.5559 5.3983 14.5102 5.57311C14.4644 5.74792 14.5165 5.93383 14.6465 6.05936L17.293 8.70586L14.6465 11.3524C14.4513 11.5476 14.4513 11.8641 14.6465 12.0594Z" fill="#4883FF"/>
</svg>
