<svg width="16" height="16" viewBox="0 0 16 16" fill="none" xmlns="http://www.w3.org/2000/svg">
<g clip-path="url(#clip0_103_1067)">
<path d="M8 0C12.4185 0 16 3.5815 16 8C16 12.4185 12.4185 16 8 16C3.5815 16 0 12.4185 0 8C0 3.5815 3.5815 0 8 0ZM7.9625 2.5C4.946 2.5 2.5 4.946 2.5 7.9625C2.5 10.979 4.945 13.4255 7.962 13.426C8.67958 13.4261 9.39016 13.2849 10.0531 13.0103C10.7161 12.7358 11.3185 12.3333 11.8259 11.8259C12.3333 11.3185 12.7358 10.7161 13.0103 10.0531C13.2849 9.39016 13.4261 8.67958 13.426 7.962C13.4255 4.945 10.9795 2.5 7.9625 2.5ZM7.962 2.926C8.62354 2.92561 9.27868 3.05558 9.88996 3.3085C10.5012 3.56142 11.0567 3.93232 11.5246 4.40001C11.9924 4.8677 12.3636 5.423 12.6167 6.03419C12.8699 6.64537 13.0001 7.30046 13 7.962C12.999 10.7415 10.745 12.994 7.966 12.994C5.1865 12.994 2.933 10.7415 2.932 7.962C2.931 5.1825 5.1825 2.928 7.962 2.926ZM10.828 11.105C10.0452 11.8208 9.02279 12.2178 7.962 12.2178C6.90121 12.2178 5.87883 11.8208 5.096 11.105L4.796 11.405L4.907 11.504C5.77589 12.2557 6.89114 12.661 8.03989 12.6428C9.18864 12.6245 10.2904 12.1839 11.135 11.405L10.828 11.105ZM4.519 4.799C3.72268 5.66241 3.28055 6.79394 3.28055 7.9685C3.28055 9.14306 3.72268 10.2746 4.519 11.138L4.819 10.828L4.724 10.721C4.05175 9.93341 3.6904 8.92736 3.70789 7.89203C3.72539 6.8567 4.12053 5.86343 4.819 5.099L4.519 4.799ZM11.409 4.786V4.793L11.109 5.093L11.204 5.2C11.8771 5.98779 12.2389 6.99447 12.2214 8.03049C12.2039 9.0665 11.8083 10.0604 11.109 10.825L11.409 11.125L11.508 11.014C12.2597 10.1451 12.665 9.02986 12.6468 7.88111C12.6285 6.73236 12.1879 5.63056 11.409 4.786ZM7.624 5.2H7.1V6.068H6.029V6.633H6.04C6.103 6.6315 6.4185 6.6265 6.413 6.633C6.48332 6.62526 6.5539 6.64513 6.60986 6.68841C6.66582 6.73168 6.7028 6.79499 6.713 6.865V9.241L6.707 9.2775C6.69741 9.31347 6.6772 9.3457 6.649 9.37C6.63054 9.38634 6.609 9.39883 6.58564 9.40673C6.56229 9.41463 6.53759 9.41778 6.513 9.416C6.52 9.422 6.129 9.416 6.129 9.416L6.029 10.047H7.09V10.929H7.618V10.06H8.04V10.925H8.569V10.053L8.667 10.0465C9.5065 9.9815 10.086 9.748 10.161 8.944C10.224 8.272 9.908 7.972 9.403 7.851C9.71 7.7 9.9 7.42 9.857 6.962C9.797 6.336 9.257 6.126 8.574 6.062V5.2H8.046V6.046H7.624V5.2ZM7.676 8.2565C8.072 8.2515 9.117 8.1795 9.117 8.84C9.117 9.496 7.993 9.421 7.635 9.421V8.257L7.676 8.2565ZM7.673 6.6685C8.005 6.663 8.872 6.599 8.872 7.2C8.872 7.8 7.934 7.727 7.636 7.727V6.669L7.673 6.6685ZM11.021 4.42C10.1521 3.66834 9.03686 3.26296 7.88811 3.28122C6.73936 3.29948 5.63756 3.74011 4.793 4.519L5.1 4.819L5.207 4.724C5.99479 4.05093 7.00147 3.68907 8.03749 3.70657C9.0735 3.72407 10.0674 4.11971 10.832 4.819L11.132 4.519L11.021 4.42Z" fill="#407BFF"/>
</g>
<defs>
<clipPath id="clip0_103_1067">
<rect width="16" height="16" fill="white"/>
</clipPath>
</defs>
</svg>
