<svg width="27" height="24" viewBox="0 0 27 24" fill="none" xmlns="http://www.w3.org/2000/svg">
<path d="M1.12504 0C0.779841 0 0.5 0.261185 0.5 0.583374V22.9683C0.5 23.2543 0.618694 23.5274 0.827753 23.7225C1.01879 23.9008 1.27038 24 1.5317 24H25.5892C25.9344 24 26.2143 23.7388 26.2143 23.4166C26.2143 23.0944 25.9344 22.8333 25.5892 22.8333H3.75008C2.64552 22.8333 1.75009 21.9378 1.75009 20.8333V0.583374C1.75009 0.261185 1.47025 0 1.12504 0Z" fill="#C11574"/>
<path fill-rule="evenodd" clip-rule="evenodd" d="M6.12535 15.1477C4.99429 15.1356 4.00446 15.8548 3.73972 16.8813C3.47499 17.9077 4.00566 18.9686 5.01872 19.4382C6.03179 19.9079 7.25816 19.6615 7.97447 18.8444C8.69077 18.0273 8.70676 16.8566 8.01299 16.0227L10.9382 12.0208C11.192 12.1012 11.4577 12.1445 11.7257 12.1491C12.4107 12.1551 13.0657 11.8876 13.5259 11.4141L16.126 13.1409C16.0861 13.3095 16.0651 13.4815 16.0635 13.6542C16.0635 14.8914 17.1381 15.8944 18.4637 15.8944C19.7893 15.8944 20.8639 14.8914 20.8639 13.6542C20.862 13.1474 20.672 12.6567 20.3263 12.2658L23.114 8.2872C24.249 8.62119 25.4737 8.11966 25.9788 7.11396C26.484 6.10825 26.1137 4.90887 25.1126 4.30823C24.1116 3.70759 22.7888 3.89113 22.0182 4.73759C21.2476 5.58405 21.2672 6.83209 22.064 7.65715L19.2888 11.5774C19.0131 11.4798 18.7211 11.4284 18.4262 11.4257C17.7709 11.4254 17.1436 11.6739 16.6886 12.1141L14.0759 10.4107C14.0889 10.2592 14.0889 10.1071 14.0759 9.95564C14.1268 8.94335 13.4432 8.02526 12.4089 7.71681C11.3746 7.40836 10.2473 7.78639 9.65985 8.63865C9.07239 9.49092 9.17112 10.6051 9.90062 11.3557L7.01292 15.311C6.73128 15.2031 6.42978 15.1477 6.12535 15.1477ZM23.8141 5.10198C24.4493 5.10198 24.9642 5.58256 24.9642 6.17539C24.9642 6.76822 24.4493 7.2488 23.8141 7.2488C23.1789 7.2488 22.664 6.76822 22.664 6.17539C22.664 5.58256 23.1789 5.10198 23.8141 5.10198ZM19.5763 13.6543C19.5763 13.0614 19.0614 12.5808 18.4262 12.5808C17.791 12.5808 17.2761 13.0614 17.2761 13.6543C17.2761 14.2471 17.791 14.7277 18.4262 14.7277C19.0614 14.7277 19.5763 14.2471 19.5763 13.6543ZM11.7257 8.83555C12.3609 8.83555 12.8758 9.31613 12.8758 9.90896C12.8758 10.5018 12.3609 10.9824 11.7257 10.9824C11.0905 10.9824 10.5756 10.5018 10.5756 9.90896C10.5756 9.31613 11.0905 8.83555 11.7257 8.83555ZM5.06064 17.793C5.23709 18.197 5.65795 18.4611 6.12536 18.4612C6.7509 18.4613 7.26184 17.9948 7.27544 17.4111C7.2856 16.975 7.01193 16.5765 6.58308 16.403C6.15423 16.2294 5.65551 16.3154 5.32139 16.6205C4.98726 16.9256 4.8842 17.389 5.06064 17.793Z" fill="#C11574"/>
</svg>
