<svg width="30" height="31" viewBox="0 0 30 31" fill="none" xmlns="http://www.w3.org/2000/svg">
<path d="M10.8738 13.8075L10.7438 13.195M16.9875 12.5075L16.8575 11.895M10.625 19.9625C12.1975 20.3575 13.9825 20.3575 15.7787 19.8763C17.5737 19.395 19.1187 18.5025 20.2837 17.375" stroke="#D52929" stroke-width="1.5" stroke-linecap="round" stroke-linejoin="round"/>
<path d="M15.7344 20.0461L16.3319 21.2636C16.44 21.4853 16.5907 21.6836 16.7756 21.8469C16.9604 22.0102 17.1756 22.1355 17.4089 22.2155C17.6422 22.2956 17.8891 22.3288 18.1352 22.3133C18.3814 22.2977 18.6221 22.2338 18.8435 22.1251C19.0649 22.0164 19.2627 21.8651 19.4256 21.6798C19.5884 21.4946 19.7131 21.279 19.7925 21.0455C19.8719 20.8119 19.9044 20.565 19.8882 20.3189C19.872 20.0728 19.8074 19.8323 19.6981 19.6111L19.1231 18.4424" stroke="#D52929" stroke-width="1.5" stroke-linecap="round" stroke-linejoin="round"/>
<path d="M3.75 12.25C3.75 9.45 3.75 8.05 4.295 6.98C4.77436 6.03923 5.53923 5.27436 6.48 4.795C7.55 4.25 8.95 4.25 11.75 4.25H18.25C21.05 4.25 22.45 4.25 23.52 4.795C24.4608 5.27436 25.2256 6.03923 25.705 6.98C26.25 8.05 26.25 9.45 26.25 12.25V18.75C26.25 21.55 26.25 22.95 25.705 24.02C25.2256 24.9608 24.4608 25.7256 23.52 26.205C22.45 26.75 21.05 26.75 18.25 26.75H11.75C8.95 26.75 7.55 26.75 6.48 26.205C5.53923 25.7256 4.77436 24.9608 4.295 24.02C3.75 22.95 3.75 21.55 3.75 18.75V12.25Z" stroke="#D52929" stroke-width="1.5" stroke-linecap="round" stroke-linejoin="round"/>
</svg>
