<svg width="36" height="36" viewBox="0 0 36 36" fill="none" xmlns="http://www.w3.org/2000/svg">
<g clip-path="url(#clip0_100_266)">
<path d="M20.6999 28.3499H14.3999L13.6499 26.3249H2.32489V7.0499C2.32489 6.1499 3.07489 5.3999 3.97489 5.3999H32.0249C32.9249 5.3999 33.6749 6.1499 33.6749 7.0499V26.3999H22.1999L20.6999 28.3499ZM15.2249 27.2249H20.1749L21.6749 25.1999H32.5499V7.0499C32.5499 6.7499 32.3249 6.5249 32.0249 6.5249H3.97489C3.67489 6.5249 3.44989 6.7499 3.44989 7.0499V25.2749H14.4749L15.2249 27.2249Z" fill="white"/>
<path d="M30.5999 30.6H5.39987C2.69987 30.6 0.524872 28.425 0.524872 25.725V25.125H14.3999L15.1499 27.15H20.0999L21.5999 25.125H35.3999V25.725C35.4749 28.425 33.2249 30.6 30.5999 30.6ZM1.72487 26.325C2.02487 28.125 3.52487 29.475 5.39987 29.475H30.5249C32.3999 29.475 33.9749 28.125 34.1999 26.325H22.1999L20.6999 28.35H14.3999L13.6499 26.325H1.72487Z" fill="white"/>
<path d="M12.5249 9.375H6.74988V14.4H12.5249V9.375Z" fill="white"/>
<path d="M13.0499 14.9249H6.14987V8.7749H13.0499V14.9249ZM7.27487 13.7999H11.9249V9.8999H7.27487V13.7999Z" fill="white"/>
<path d="M12.5249 17.3252H6.74988V22.3502H12.5249V17.3252Z" fill="white"/>
<path d="M13.0499 22.9498H6.14987V16.7998H13.0499V22.9498ZM7.27487 21.8248H11.9249V17.9248H7.27487V21.8248Z" fill="white"/>
<path d="M29.5499 11.25H16.1249V12.375H29.5499V11.25Z" fill="white"/>
<path d="M29.5499 19.2749H16.1249V20.3999H29.5499V19.2749Z" fill="white"/>
</g>
<defs>
<clipPath id="clip0_100_266">
<rect width="36" height="36" fill="white"/>
</clipPath>
</defs>
</svg>
