<svg width="26" height="27" viewBox="0 0 26 27" fill="none" xmlns="http://www.w3.org/2000/svg">
<path d="M18.8652 11.7818C19.5 11.147 19.5 10.1265 19.5 8.08333C19.5 6.04017 19.5 5.01967 18.8652 4.38483M18.8652 11.7818C18.2303 12.4167 17.2098 12.4167 15.1667 12.4167H10.8333C8.79017 12.4167 7.76967 12.4167 7.13483 11.7818M18.8652 4.38483C18.2303 3.75 17.2098 3.75 15.1667 3.75H10.8333C8.79017 3.75 7.76967 3.75 7.13483 4.38483M7.13483 4.38483C6.5 5.01967 6.5 6.04017 6.5 8.08333C6.5 10.1265 6.5 11.147 7.13483 11.7818M14.0833 8.08333C14.0833 8.37065 13.9692 8.6462 13.766 8.84937C13.5629 9.05253 13.2873 9.16667 13 9.16667C12.7127 9.16667 12.4371 9.05253 12.234 8.84937C12.0308 8.6462 11.9167 8.37065 11.9167 8.08333C11.9167 7.79602 12.0308 7.52047 12.234 7.3173C12.4371 7.11414 12.7127 7 13 7C13.2873 7 13.5629 7.11414 13.766 7.3173C13.9692 7.52047 14.0833 7.79602 14.0833 8.08333Z" stroke="#407BFF" stroke-width="1.5"/>
<path d="M19.4993 7C18.6374 7 17.8107 6.65759 17.2013 6.0481C16.5918 5.4386 16.2493 4.61195 16.2493 3.75M19.4993 9.16667C18.6374 9.16667 17.8107 9.50908 17.2013 10.1186C16.5918 10.7281 16.2493 11.5547 16.2493 12.4167M6.49935 7C7.3613 7 8.18795 6.65759 8.79745 6.0481C9.40694 5.4386 9.74935 4.61195 9.74935 3.75M6.49935 9.16667C7.3613 9.16667 8.18795 9.50908 8.79745 10.1186C9.40694 10.7281 9.74935 11.5547 9.74935 12.4167M5.41602 22.587H7.86435C8.95852 22.587 10.0668 22.7018 11.1317 22.9207C13.0331 23.3101 14.9891 23.3534 16.9058 23.0485C17.8462 22.8968 18.7692 22.6639 19.6055 22.2609C20.3595 21.8958 21.2836 21.3834 21.9043 20.8082C22.524 20.234 23.1697 19.2947 23.6268 18.5602C24.0212 17.9297 23.8305 17.1573 23.2087 16.6882C22.8591 16.4346 22.4382 16.2979 22.0062 16.2979C21.5742 16.2979 21.1533 16.4346 20.8037 16.6882L18.8461 18.167C18.0878 18.7412 17.259 19.2687 16.2721 19.4258C16.1529 19.4446 16.0283 19.4616 15.8983 19.4767M15.8983 19.4767L15.7792 19.4897M15.8983 19.4767C16.0717 19.4298 16.2307 19.3404 16.3609 19.2167C16.5244 19.0757 16.658 18.9033 16.7536 18.7097C16.8493 18.5161 16.9052 18.3053 16.9179 18.0897C16.9306 17.8741 16.9 17.6582 16.8277 17.4547C16.7555 17.2512 16.6432 17.0642 16.4974 16.9049C16.3563 16.7482 16.1918 16.6141 16.0099 16.5073C12.9798 14.6992 8.2641 16.0762 5.41602 18.0966M15.8983 19.4767C15.8592 19.4855 15.8193 19.4898 15.7792 19.4897M15.7792 19.4897C15.1258 19.5552 14.4676 19.5567 13.814 19.4941" stroke="#407BFF" stroke-width="1.5" stroke-linecap="round"/>
<path d="M5.41602 17.2915C5.41602 16.394 4.68848 15.6665 3.79102 15.6665C2.89355 15.6665 2.16602 16.394 2.16602 17.2915V22.7082C2.16602 23.6056 2.89355 24.3332 3.79102 24.3332C4.68848 24.3332 5.41602 23.6056 5.41602 22.7082V17.2915Z" stroke="#407BFF" stroke-width="1.5"/>
</svg>
