<svg width="27" height="26" viewBox="0 0 27 26" fill="none" xmlns="http://www.w3.org/2000/svg">
<path d="M0.933333 17.3083C0.694133 17.3083 0.5 17.1229 0.5 16.8945V2.24138C0.5 1.55697 1.08327 1 1.8 1H25.2C25.9167 1 26.5 1.55697 26.5 2.24138V6.30629C26.5 6.5347 26.3059 6.72008 26.0667 6.72008C25.8275 6.72008 25.6333 6.5347 25.6333 6.30629V2.24138C25.6333 2.01379 25.4383 1.82759 25.2 1.82759H1.8C1.56167 1.82759 1.36667 2.01379 1.36667 2.24138V16.8945C1.36667 17.1229 1.17253 17.3083 0.933333 17.3083Z" fill="#327FD8" stroke="#327FD8" stroke-width="0.6"/>
<path d="M13.5 25H8.73334C8.49414 25 8.3 24.8146 8.3 24.5862C8.3 24.3578 8.49414 24.1724 8.73334 24.1724H9.6C10.3167 24.1724 10.9 23.6154 10.9 22.931V20.862C10.9 20.6336 11.0941 20.4482 11.3333 20.4482C11.5725 20.4482 11.7667 20.6336 11.7667 20.862V22.931C11.7667 23.3969 11.6046 23.8264 11.3325 24.1724H13.5C13.7392 24.1724 13.9333 24.3578 13.9333 24.5862C13.9333 24.8146 13.7392 25 13.5 25Z" fill="#327FD8" stroke="#327FD8" stroke-width="0.6"/>
<path d="M14.5111 20.8621H1.8C1.08327 20.8621 0.5 20.3051 0.5 19.6207V17.1379C0.5 16.9095 0.694133 16.7241 0.933333 16.7241H14.5111C14.7503 16.7241 14.9444 16.9095 14.9444 17.1379C14.9444 17.3663 14.7503 17.5517 14.5111 17.5517H1.36667V19.6207C1.36667 19.8483 1.56167 20.0345 1.8 20.0345H14.5111C14.7503 20.0345 14.9444 20.2198 14.9444 20.4483C14.9444 20.6767 14.7503 20.8621 14.5111 20.8621Z" fill="#327FD8" stroke="#327FD8" stroke-width="0.6"/>
<path d="M18.2667 6.79292H22.6C22.8392 6.79292 23.0333 6.60754 23.0333 6.37913C23.0333 6.15071 22.8392 5.96533 22.6 5.96533H18.2667C18.0275 5.96533 17.8333 6.15071 17.8333 6.37913C17.8333 6.60754 18.0275 6.79292 18.2667 6.79292Z" fill="#327FD8" stroke="#327FD8" stroke-width="0.6"/>
<path d="M20 23.3447H20.8667C21.1059 23.3447 21.3 23.1593 21.3 22.9309C21.3 22.7025 21.1059 22.5171 20.8667 22.5171H20C19.7608 22.5171 19.5667 22.7025 19.5667 22.9309C19.5667 23.1593 19.7608 23.3447 20 23.3447Z" fill="#327FD8" stroke="#327FD8" stroke-width="0.6"/>
<path fill-rule="evenodd" clip-rule="evenodd" d="M16.5333 25.0002H24.3333C25.5285 25.0002 26.5 24.0725 26.5 22.9312V6.37951C26.5 5.23827 25.5285 4.31055 24.3333 4.31055H16.5333C15.3382 4.31055 14.3667 5.23827 14.3667 6.37951V22.9312C14.3667 24.0725 15.3382 25.0002 16.5333 25.0002ZM15.2333 6.37951C15.2333 5.6951 15.8166 5.13813 16.5333 5.13813H24.3333C25.0501 5.13813 25.6333 5.6951 25.6333 6.37951V22.9312C25.6333 23.6157 25.0501 24.1726 24.3333 24.1726H16.5333C15.8166 24.1726 15.2333 23.6157 15.2333 22.9312V6.37951Z" fill="#327FD8"/>
<path d="M24.3333 24.7002H16.5333V25.3002H24.3333V24.7002ZM26.2 22.9312C26.2 23.8939 25.376 24.7002 24.3333 24.7002V25.3002C25.681 25.3002 26.8 24.2511 26.8 22.9312H26.2ZM26.2 6.37951V22.9312H26.8V6.37951H26.2ZM24.3333 4.61055C25.376 4.61055 26.2 5.41685 26.2 6.37951H26.8C26.8 5.05969 25.681 4.01055 24.3333 4.01055V4.61055ZM16.5333 4.61055H24.3333V4.01055H16.5333V4.61055ZM14.6667 6.37951C14.6667 5.41685 15.4907 4.61055 16.5333 4.61055V4.01055C15.1857 4.01055 14.0667 5.05969 14.0667 6.37951H14.6667ZM14.6667 22.9312V6.37951H14.0667V22.9312H14.6667ZM16.5333 24.7002C15.4907 24.7002 14.6667 23.8939 14.6667 22.9312H14.0667C14.0667 24.2511 15.1857 25.3002 16.5333 25.3002V24.7002ZM16.5333 4.83813C15.6641 4.83813 14.9333 5.51652 14.9333 6.37951H15.5333C15.5333 5.87368 15.9691 5.43813 16.5333 5.43813V4.83813ZM24.3333 4.83813H16.5333V5.43813H24.3333V4.83813ZM25.9333 6.37951C25.9333 5.51652 25.2026 4.83813 24.3333 4.83813V5.43813C24.8976 5.43813 25.3333 5.87368 25.3333 6.37951H25.9333ZM25.9333 22.9312V6.37951H25.3333V22.9312H25.9333ZM24.3333 24.4726C25.2026 24.4726 25.9333 23.7942 25.9333 22.9312H25.3333C25.3333 23.4371 24.8976 23.8726 24.3333 23.8726V24.4726ZM16.5333 24.4726H24.3333V23.8726H16.5333V24.4726ZM14.9333 22.9312C14.9333 23.7942 15.6641 24.4726 16.5333 24.4726V23.8726C15.9691 23.8726 15.5333 23.4371 15.5333 22.9312H14.9333ZM14.9333 6.37951V22.9312H15.5333V6.37951H14.9333Z" fill="#327FD8"/>
</svg>
